<svg width="182" height="99" viewBox="0 0 182 99" fill="none" xmlns="http://www.w3.org/2000/svg">
<g id="Group 2">
<path id="Vector" d="M3.12891e-05 59.7148V6.4475C2.30083e-05 4.74098 0.676555 3.10408 1.88136 1.89551C3.08616 0.686942 4.72095 0.00531624 6.42746 0H175.007C176.713 0.00531624 178.348 0.686942 179.553 1.89551C180.758 3.10408 181.434 4.74098 181.434 6.4475V57.6661C181.434 59.3726 180.758 61.0095 179.553 62.2181C178.348 63.4266 176.713 64.1083 175.007 64.1136C173.715 64.1001 172.449 64.4761 171.374 65.1927C170.299 65.9093 169.465 66.9331 168.981 68.1307C166.571 73.9355 163.096 85.1433 166.47 95.5477C170.608 108.342 144.918 76.4663 137.547 67.1465C136.934 66.3805 136.153 65.765 135.266 65.3472C134.378 64.9294 133.406 64.7204 132.425 64.7362L6.44754 66.1824C5.59915 66.1824 4.7591 66.015 3.97554 65.6897C3.19198 65.3644 2.48032 64.8877 1.88135 64.2869C1.28238 63.686 0.807876 62.9729 0.485042 62.1883C0.162207 61.4038 -0.00261168 60.5632 3.12891e-05 59.7148Z" fill="#631E4D"/>
<path id="Vector_2" d="M49.9028 34.8633C50.0355 32.1598 47.8527 29.8559 45.0274 29.7172C42.2021 29.5785 39.8041 31.6577 39.6714 34.3611C39.5387 37.0645 41.7215 39.3685 44.5469 39.5072C47.3722 39.6459 49.7701 37.5667 49.9028 34.8633Z" fill="white"/>
<path id="Vector_3" d="M26.9232 34.8752C27.0559 32.1717 24.8731 29.8677 22.0478 29.729C19.2224 29.5904 16.8245 31.6695 16.6918 34.373C16.5591 37.0764 18.7419 39.3804 21.5672 39.5191C24.3926 39.6578 26.7905 37.5786 26.9232 34.8752Z" fill="white"/>
<path id="Vector_4" d="M72.8617 34.8702C72.9944 32.1668 70.8116 29.8628 67.9862 29.7241C65.1609 29.5855 62.763 31.6646 62.6303 34.3681C62.4976 37.0715 64.6804 39.3755 67.5057 39.5142C70.331 39.6528 72.729 37.5737 72.8617 34.8702Z" fill="white"/>
<path id="Vector_5" d="M95.8213 34.8575C95.954 32.154 93.7712 29.85 90.9458 29.7113C88.1205 29.5727 85.7226 31.6518 85.5899 34.3553C85.4572 37.0587 87.64 39.3627 90.4653 39.5014C93.2906 39.6401 95.6886 37.5609 95.8213 34.8575Z" fill="white"/>
<path id="Vector_6" d="M118.8 34.8653C118.933 32.1619 116.75 29.8579 113.924 29.7192C111.099 29.5805 108.701 31.6597 108.568 34.3631C108.436 37.0666 110.619 39.3706 113.444 39.5093C116.269 39.6479 118.667 37.5688 118.8 34.8653Z" fill="white"/>
<path id="Vector_7" d="M141.742 35.1805C142.039 32.4901 140 30.0579 137.188 29.7479C134.376 29.438 131.856 31.3678 131.56 34.0582C131.263 36.7486 133.302 39.1808 136.114 39.4908C138.926 39.8007 141.445 37.8709 141.742 35.1805Z" fill="white"/>
<path id="Vector_8" d="M164.707 35.1776C165.003 32.4872 162.964 30.0549 160.153 29.745C157.341 29.4351 154.821 31.3648 154.525 34.0553C154.228 36.7457 156.267 39.1779 159.079 39.4878C161.89 39.7977 164.41 37.868 164.707 35.1776Z" fill="white"/>
</g>
</svg>
